
		<svg width="3564.6331337588363" height="3618.301725411458" xmlns="http://www.w3.org/2000/svg" xmlns:xlink="http://www.w3.org/1999/xlink" version="1.1">
            <g transform="scale(30.91508627057289) translate(10, 10)">
				<defs id="SvgjsDefs1002"/><g id="main_text" rel="mainfill" name="main_text" xmlns:name="mainText_mainfill" fill="#e3706f" transform="translate(-1.5599993467330933, 68.1200008392334)"><path d="M13.2 28.248 c0.144 0.336 0 0.552 -0.36 0.552 l-1.92 0 c-0.264 0 -0.456 -0.12 -0.552 -0.36 l-2.256 -5.208 l-0.192 0 l-3.624 0 l0 5.208 c0 0.24 -0.12 0.36 -0.36 0.36 l-2.016 0 c-0.24 0 -0.36 -0.12 -0.36 -0.36 l0 -16.08 c0 -0.24 0.12 -0.36 0.36 -0.36 l2.016 0 l3.984 0 c3.24 0 4.824 1.8 4.824 4.776 l0 1.656 c0 1.944 -0.672 3.384 -2.04 4.176 z M4.296 14.472000000000001 l0 6.288 l3.624 0 c1.464 0 2.088 -0.528 2.088 -2.328 l0 -1.656 c0 -1.776 -0.624 -2.304 -2.088 -2.304 l-3.624 0 z M22.728 11.879999999999999 c3.24 0 4.824 1.944 4.824 4.992 l0 7.056 c0 3.048 -1.584 4.992 -4.824 4.992 l-2.352 0 c-3.24 0 -4.824 -1.944 -4.824 -4.992 l0 -7.056 c0 -3.048 1.584 -4.992 4.824 -4.992 l2.352 0 z M24.816000000000003 23.928 l0 -7.056 c0 -1.848 -0.624 -2.52 -2.088 -2.52 l-2.352 0 c-1.464 0 -2.088 0.672 -2.088 2.52 l0 7.056 c0 1.872 0.624 2.52 2.088 2.52 l2.352 0 c1.464 0 2.088 -0.648 2.088 -2.52 z M36.288 18.84 c2.64 0.552 5.448 1.44 5.448 5.136 c0 3.096 -1.584 4.944 -4.824 4.944 l-2.16 0 c-3.048 0 -4.656 -1.728 -4.8 -4.536 c-0.024 -0.288 0.144 -0.456 0.456 -0.456 l1.8 0 c0.264 0 0.456 0.168 0.48 0.456 c0.096 1.536 0.72 2.064 2.064 2.064 l2.16 0 c1.464 0 2.088 -0.552 2.088 -2.472 c0 -2.016 -1.128 -2.304 -2.832 -2.664 l-1.176 -0.24 c-2.928 -0.6 -4.896 -1.728 -4.896 -4.776 c0 -2.832 1.608 -4.416 4.872 -4.416 l1.464 0 c3.024 0 4.56 1.728 4.728 4.44 c0.024 0.312 -0.144 0.48 -0.432 0.48 l-1.8 0 c-0.288 0 -0.48 -0.168 -0.504 -0.48 c-0.096 -1.416 -0.696 -1.968 -1.992 -1.968 l-1.464 0 c-1.488 0 -2.136 0.312 -2.136 1.944 c0 1.536 0.36 1.92 2.28 2.304 z M55.68 12 c0.24 0 0.36 0.12 0.24 0.36 l-4.848 9.84 l0 6.24 c0 0.24 -0.12 0.36 -0.36 0.36 l-2.016 0 c-0.24 0 -0.36 -0.12 -0.36 -0.36 l0 -6.24 l-4.872 -9.84 c-0.12 -0.24 0 -0.36 0.24 -0.36 l2.232 0 c0.24 0 0.36 0.12 0.48 0.36 l3.288 6.984 l3.288 -6.984 c0.12 -0.24 0.24 -0.36 0.48 -0.36 l2.208 0 z M67.944 19.704 c1.032 0.672 1.728 1.8 1.728 3.408 l0 1.2 c0 3.024 -1.632 4.488 -4.944 4.488 l-4.92 0 l-1.2 0 c-0.24 0 -0.36 -0.12 -0.36 -0.36 l0 -16.08 c0 -0.24 0.12 -0.36 0.36 -0.36 l2.016 0 l4.008 0 c3.024 0 4.392 1.32 4.392 4.56 c0 1.392 -0.408 2.424 -1.08 3.144 z M66.288 16.560000000000002 c0 -1.824 -0.408 -2.088 -1.656 -2.088 l-3.648 0 l0 4.32 l3.648 0 c1.248 0 1.656 -0.384 1.656 -2.232 z M66.936 24.312 l0 -1.2 c0 -1.656 -0.672 -2.088 -2.208 -2.088 l-3.744 0 l0 5.304 l3.744 0 c1.536 0 2.208 -0.36 2.208 -2.016 z M79.248 11.879999999999999 c3.24 0 4.824 1.944 4.824 4.992 l0 7.056 c0 3.048 -1.584 4.992 -4.824 4.992 l-2.352 0 c-3.24 0 -4.824 -1.944 -4.824 -4.992 l0 -7.056 c0 -3.048 1.584 -4.992 4.824 -4.992 l2.352 0 z M81.33600000000001 23.928 l0 -7.056 c0 -1.848 -0.624 -2.52 -2.088 -2.52 l-2.352 0 c-1.464 0 -2.088 0.672 -2.088 2.52 l0 7.056 c0 1.872 0.624 2.52 2.088 2.52 l2.352 0 c1.464 0 2.088 -0.648 2.088 -2.52 z M96.504 12 c0.24 0 0.36 0.12 0.36 0.36 l0 1.752 c0 0.24 -0.12 0.36 -0.36 0.36 l-3.504 0 l0 13.968 c0 0.24 -0.12 0.36 -0.36 0.36 l-2.016 0 c-0.24 0 -0.36 -0.12 -0.36 -0.36 l0 -13.968 l-3.552 0 c-0.24 0 -0.36 -0.12 -0.36 -0.36 l0 -1.752 c0 -0.24 0.12 -0.36 0.36 -0.36 l5.928 0 l3.864 0 z"/></g><g id="SvgjsG1009" rel="mainfill" name="symbol" xmlns:name="symbol_mainfill" fill="#e3706f" transform="translate(11.540889316134983, -3.611111111111111) scale(0.7222222222222222)"><path xmlns="http://www.w3.org/2000/svg" d="M63.8,43.6l-3.2,3.2c-1.5-1.9-3.9-3.2-6.6-3.2c-4.7,0-8.4,3.8-8.4,8.4h16.9c0,0,0,0,0,0l4.9-4.9L63.8,43.6z M24.7,43.6  c-2.7,0-5.1,1.3-6.6,3.2l-3.2-3.2l-3.5,3.5l4.9,4.9l0,0c0,0,0,0,0,0h16.9C33.1,47.3,29.4,43.6,24.7,43.6z M39.5,69  c-3.4,0-6.4-1.7-8.1-4.4h-5.6c2.2,5.5,7.5,9.4,13.7,9.4c6.2,0,11.6-3.9,13.7-9.4h-5.6C45.9,67.3,42.9,69,39.5,69z M87.8,74.4  C92.4,67.3,95,59,95,50C95,25.1,74.9,5,50,5S5,25.1,5,50c0,24.9,20.1,45,45,45c9.3,0,17.9-2.8,25.1-7.6L95,95L87.8,74.4L87.8,74.4z   M79.7,83.8L79.7,83.8l-5.4-2.1l0,0c-0.1,0-0.1,0.1-0.2,0.1c0,0,0,0,0,0c-0.8,0.6-1.6,1.1-2.4,1.7c0,0-0.1,0.1-0.1,0.1  c-0.8,0.5-1.7,1-2.5,1.5l0,0C63.4,88.2,56.9,90,50,90c-22.1,0-40-17.9-40-40c0-22.1,17.9-40,40-40s40,17.9,40,40  c0,6.5-1.6,12.7-4.4,18.1l0,0c-1,1.9-2.1,3.8-3.4,5.5l0,0l1.9,5.6l0,0l2.5,7.3L79.7,83.8z"/></g>
			</g>
		</svg>
    